<mxfile host="app.diagrams.net" agent="Mozilla/5.0 (Windows NT 10.0; Win64; x64) AppleWebKit/537.36 (KHTML, like Gecko) Chrome/131.0.0.0 Safari/537.36" version="25.0.1">
  <diagram name="Page-1" id="7wto8sQBbRbYYw6RCctN">
    <mxGraphModel dx="1354" dy="708" grid="1" gridSize="10" guides="1" tooltips="1" connect="1" arrows="1" fold="1" page="1" pageScale="1" pageWidth="850" pageHeight="1100" math="0" shadow="0">
      <root>
        <mxCell id="0" />
        <mxCell id="1" parent="0" />
        <mxCell id="iphyVu1xTRnxOxPySKvS-2" value="" style="rounded=0;whiteSpace=wrap;html=1;direction=south;" parent="1" vertex="1">
          <mxGeometry x="200" y="90" width="480" height="880" as="geometry" />
        </mxCell>
        <mxCell id="iphyVu1xTRnxOxPySKvS-3" value="&lt;font style=&quot;font-size: 18px;&quot;&gt;Banking Management System&lt;/font&gt;" style="text;html=1;align=center;verticalAlign=middle;whiteSpace=wrap;rounded=0;" parent="1" vertex="1">
          <mxGeometry x="315" y="100" width="250" height="40" as="geometry" />
        </mxCell>
        <mxCell id="iphyVu1xTRnxOxPySKvS-7" value="Customer" style="shape=umlActor;verticalLabelPosition=bottom;verticalAlign=top;html=1;outlineConnect=0;" parent="1" vertex="1">
          <mxGeometry x="100" y="380" width="30" height="60" as="geometry" />
        </mxCell>
        <mxCell id="iphyVu1xTRnxOxPySKvS-13" value="" style="endArrow=block;endSize=16;endFill=0;html=1;rounded=0;" parent="1" edge="1">
          <mxGeometry width="160" relative="1" as="geometry">
            <mxPoint x="114.74" y="650" as="sourcePoint" />
            <mxPoint x="114.74" y="490" as="targetPoint" />
          </mxGeometry>
        </mxCell>
        <mxCell id="iphyVu1xTRnxOxPySKvS-14" value="New Customer" style="shape=umlActor;verticalLabelPosition=bottom;verticalAlign=top;html=1;outlineConnect=0;" parent="1" vertex="1">
          <mxGeometry x="100" y="660" width="30" height="60" as="geometry" />
        </mxCell>
        <mxCell id="iphyVu1xTRnxOxPySKvS-15" value="Create Account" style="ellipse;whiteSpace=wrap;html=1;" parent="1" vertex="1">
          <mxGeometry x="240" y="650" width="140" height="70" as="geometry" />
        </mxCell>
        <mxCell id="iphyVu1xTRnxOxPySKvS-19" value="" style="endArrow=none;html=1;rounded=0;entryX=0;entryY=0.5;entryDx=0;entryDy=0;" parent="1" source="iphyVu1xTRnxOxPySKvS-14" target="iphyVu1xTRnxOxPySKvS-15" edge="1">
          <mxGeometry width="50" height="50" relative="1" as="geometry">
            <mxPoint x="180" y="570" as="sourcePoint" />
            <mxPoint x="230" y="520" as="targetPoint" />
          </mxGeometry>
        </mxCell>
        <mxCell id="iphyVu1xTRnxOxPySKvS-20" value="" style="endArrow=block;endSize=16;endFill=0;html=1;rounded=0;entryX=0.638;entryY=0.948;entryDx=0;entryDy=0;entryPerimeter=0;" parent="1" source="iphyVu1xTRnxOxPySKvS-21" target="iphyVu1xTRnxOxPySKvS-15" edge="1">
          <mxGeometry width="160" relative="1" as="geometry">
            <mxPoint x="270" y="610" as="sourcePoint" />
            <mxPoint x="430" y="610" as="targetPoint" />
          </mxGeometry>
        </mxCell>
        <mxCell id="iphyVu1xTRnxOxPySKvS-21" value="Savings Account" style="ellipse;whiteSpace=wrap;html=1;" parent="1" vertex="1">
          <mxGeometry x="210" y="820" width="130" height="60" as="geometry" />
        </mxCell>
        <mxCell id="iphyVu1xTRnxOxPySKvS-22" value="Current Account" style="ellipse;whiteSpace=wrap;html=1;" parent="1" vertex="1">
          <mxGeometry x="372.5" y="820" width="127.5" height="60" as="geometry" />
        </mxCell>
        <mxCell id="iphyVu1xTRnxOxPySKvS-23" value="" style="endArrow=block;endSize=16;endFill=0;html=1;rounded=0;exitX=0.5;exitY=0;exitDx=0;exitDy=0;entryX=0.902;entryY=0.743;entryDx=0;entryDy=0;entryPerimeter=0;" parent="1" source="iphyVu1xTRnxOxPySKvS-22" target="iphyVu1xTRnxOxPySKvS-15" edge="1">
          <mxGeometry width="160" relative="1" as="geometry">
            <mxPoint x="380" y="550" as="sourcePoint" />
            <mxPoint x="540" y="550" as="targetPoint" />
          </mxGeometry>
        </mxCell>
        <mxCell id="iphyVu1xTRnxOxPySKvS-24" value="Deposit Money" style="ellipse;whiteSpace=wrap;html=1;" parent="1" vertex="1">
          <mxGeometry x="220" y="230" width="110" height="70" as="geometry" />
        </mxCell>
        <mxCell id="iphyVu1xTRnxOxPySKvS-25" value="Withdraw Money" style="ellipse;whiteSpace=wrap;html=1;" parent="1" vertex="1">
          <mxGeometry x="220" y="400" width="110" height="60" as="geometry" />
        </mxCell>
        <mxCell id="iphyVu1xTRnxOxPySKvS-26" value="Transfer Fund" style="ellipse;whiteSpace=wrap;html=1;" parent="1" vertex="1">
          <mxGeometry x="230" y="520" width="130" height="60" as="geometry" />
        </mxCell>
        <mxCell id="iphyVu1xTRnxOxPySKvS-30" value="" style="endArrow=none;html=1;rounded=0;entryX=0.004;entryY=0.614;entryDx=0;entryDy=0;entryPerimeter=0;" parent="1" target="iphyVu1xTRnxOxPySKvS-24" edge="1">
          <mxGeometry width="50" height="50" relative="1" as="geometry">
            <mxPoint x="140" y="420" as="sourcePoint" />
            <mxPoint x="200" y="220" as="targetPoint" />
          </mxGeometry>
        </mxCell>
        <mxCell id="iphyVu1xTRnxOxPySKvS-31" value="" style="endArrow=none;html=1;rounded=0;entryX=0;entryY=0.5;entryDx=0;entryDy=0;" parent="1" target="iphyVu1xTRnxOxPySKvS-25" edge="1">
          <mxGeometry width="50" height="50" relative="1" as="geometry">
            <mxPoint x="140" y="420" as="sourcePoint" />
            <mxPoint x="220" y="250" as="targetPoint" />
          </mxGeometry>
        </mxCell>
        <mxCell id="iphyVu1xTRnxOxPySKvS-32" value="" style="endArrow=none;html=1;rounded=0;entryX=0;entryY=0.429;entryDx=0;entryDy=0;entryPerimeter=0;" parent="1" target="iphyVu1xTRnxOxPySKvS-26" edge="1">
          <mxGeometry width="50" height="50" relative="1" as="geometry">
            <mxPoint x="140" y="420" as="sourcePoint" />
            <mxPoint x="220" y="280" as="targetPoint" />
          </mxGeometry>
        </mxCell>
        <mxCell id="iphyVu1xTRnxOxPySKvS-33" value="Check Balance" style="ellipse;whiteSpace=wrap;html=1;" parent="1" vertex="1">
          <mxGeometry x="220" y="320" width="110" height="60" as="geometry" />
        </mxCell>
        <mxCell id="iphyVu1xTRnxOxPySKvS-34" value="" style="endArrow=none;html=1;rounded=0;entryX=0;entryY=0.5;entryDx=0;entryDy=0;" parent="1" target="iphyVu1xTRnxOxPySKvS-33" edge="1">
          <mxGeometry width="50" height="50" relative="1" as="geometry">
            <mxPoint x="140" y="420" as="sourcePoint" />
            <mxPoint x="230" y="370" as="targetPoint" />
          </mxGeometry>
        </mxCell>
        <mxCell id="iphyVu1xTRnxOxPySKvS-36" value="&amp;lt;&amp;lt;Extend&amp;gt;&amp;gt;" style="endArrow=open;endSize=12;dashed=1;html=1;rounded=0;entryX=0.943;entryY=0.257;entryDx=0;entryDy=0;entryPerimeter=0;exitX=-0.007;exitY=0.6;exitDx=0;exitDy=0;exitPerimeter=0;" parent="1" target="iphyVu1xTRnxOxPySKvS-33" edge="1">
          <mxGeometry x="0.0704" y="13" width="160" relative="1" as="geometry">
            <mxPoint x="424.02" y="338" as="sourcePoint" />
            <mxPoint x="359.02" y="339.03" as="targetPoint" />
            <mxPoint as="offset" />
          </mxGeometry>
        </mxCell>
        <mxCell id="iphyVu1xTRnxOxPySKvS-37" value="Take Statement" style="ellipse;whiteSpace=wrap;html=1;" parent="1" vertex="1">
          <mxGeometry x="425" y="310" width="95" height="60" as="geometry" />
        </mxCell>
        <mxCell id="iphyVu1xTRnxOxPySKvS-38" value="&amp;lt;&amp;lt;include&amp;gt;&amp;gt;" style="endArrow=open;endSize=12;dashed=1;html=1;rounded=0;entryX=0;entryY=0.5;entryDx=0;entryDy=0;exitX=0.986;exitY=0.58;exitDx=0;exitDy=0;exitPerimeter=0;" parent="1" source="iphyVu1xTRnxOxPySKvS-26" target="iphyVu1xTRnxOxPySKvS-39" edge="1">
          <mxGeometry x="0.099" y="23" width="160" relative="1" as="geometry">
            <mxPoint x="350" y="540" as="sourcePoint" />
            <mxPoint x="510" y="540" as="targetPoint" />
            <mxPoint as="offset" />
          </mxGeometry>
        </mxCell>
        <mxCell id="iphyVu1xTRnxOxPySKvS-39" value="Enter Amount" style="ellipse;whiteSpace=wrap;html=1;" parent="1" vertex="1">
          <mxGeometry x="410" y="570" width="120" height="60" as="geometry" />
        </mxCell>
        <mxCell id="iphyVu1xTRnxOxPySKvS-40" value="Via Check" style="ellipse;whiteSpace=wrap;html=1;" parent="1" vertex="1">
          <mxGeometry x="392.5" y="390" width="100" height="50" as="geometry" />
        </mxCell>
        <mxCell id="iphyVu1xTRnxOxPySKvS-41" value="Via ATM" style="ellipse;whiteSpace=wrap;html=1;" parent="1" vertex="1">
          <mxGeometry x="380" y="470" width="112.5" height="50" as="geometry" />
        </mxCell>
        <mxCell id="iphyVu1xTRnxOxPySKvS-42" value="" style="endArrow=block;endSize=16;endFill=0;html=1;rounded=0;entryX=0.883;entryY=0.774;entryDx=0;entryDy=0;entryPerimeter=0;exitX=0;exitY=0.5;exitDx=0;exitDy=0;" parent="1" source="iphyVu1xTRnxOxPySKvS-41" target="iphyVu1xTRnxOxPySKvS-25" edge="1">
          <mxGeometry width="160" relative="1" as="geometry">
            <mxPoint x="335" y="505" as="sourcePoint" />
            <mxPoint x="380" y="390" as="targetPoint" />
          </mxGeometry>
        </mxCell>
        <mxCell id="iphyVu1xTRnxOxPySKvS-43" value="" style="endArrow=block;endSize=16;endFill=0;html=1;rounded=0;entryX=0.883;entryY=0.774;entryDx=0;entryDy=0;entryPerimeter=0;exitX=0;exitY=0.5;exitDx=0;exitDy=0;" parent="1" source="iphyVu1xTRnxOxPySKvS-40" edge="1">
          <mxGeometry width="160" relative="1" as="geometry">
            <mxPoint x="390.00000000000114" y="414.9999999999999" as="sourcePoint" />
            <mxPoint x="324.5" y="421" as="targetPoint" />
          </mxGeometry>
        </mxCell>
        <mxCell id="ae6mnd9QfLogUAE-1ja4-1" value="Manager" style="shape=umlActor;verticalLabelPosition=bottom;verticalAlign=top;html=1;outlineConnect=0;" vertex="1" parent="1">
          <mxGeometry x="730" y="660" width="30" height="60" as="geometry" />
        </mxCell>
        <mxCell id="ae6mnd9QfLogUAE-1ja4-4" value="Approve Loan" style="ellipse;whiteSpace=wrap;html=1;" vertex="1" parent="1">
          <mxGeometry x="530" y="770" width="120" height="60" as="geometry" />
        </mxCell>
        <mxCell id="ae6mnd9QfLogUAE-1ja4-5" value="" style="endArrow=none;html=1;rounded=0;exitX=1;exitY=0;exitDx=0;exitDy=0;" edge="1" parent="1" source="ae6mnd9QfLogUAE-1ja4-4">
          <mxGeometry width="50" height="50" relative="1" as="geometry">
            <mxPoint x="660" y="740" as="sourcePoint" />
            <mxPoint x="720" y="700" as="targetPoint" />
          </mxGeometry>
        </mxCell>
        <mxCell id="ae6mnd9QfLogUAE-1ja4-6" value="Manage Account" style="ellipse;whiteSpace=wrap;html=1;" vertex="1" parent="1">
          <mxGeometry x="540" y="630" width="110" height="50" as="geometry" />
        </mxCell>
        <mxCell id="ae6mnd9QfLogUAE-1ja4-7" value="" style="endArrow=none;html=1;rounded=0;exitX=1;exitY=0.5;exitDx=0;exitDy=0;" edge="1" parent="1" source="ae6mnd9QfLogUAE-1ja4-6">
          <mxGeometry width="50" height="50" relative="1" as="geometry">
            <mxPoint x="670" y="700" as="sourcePoint" />
            <mxPoint x="720" y="700" as="targetPoint" />
          </mxGeometry>
        </mxCell>
        <mxCell id="ae6mnd9QfLogUAE-1ja4-10" value="" style="endArrow=none;html=1;rounded=0;exitX=1;exitY=0.5;exitDx=0;exitDy=0;" edge="1" parent="1" source="iphyVu1xTRnxOxPySKvS-15">
          <mxGeometry width="50" height="50" relative="1" as="geometry">
            <mxPoint x="430" y="690" as="sourcePoint" />
            <mxPoint x="720" y="700" as="targetPoint" />
          </mxGeometry>
        </mxCell>
        <mxCell id="ae6mnd9QfLogUAE-1ja4-11" value="Admin" style="shape=umlActor;verticalLabelPosition=bottom;verticalAlign=top;html=1;outlineConnect=0;" vertex="1" parent="1">
          <mxGeometry x="730" y="250" width="30" height="60" as="geometry" />
        </mxCell>
        <mxCell id="ae6mnd9QfLogUAE-1ja4-14" value="&lt;span style=&quot;border: 0px solid rgb(227, 227, 227); box-sizing: border-box; --tw-border-spacing-x: 0; --tw-border-spacing-y: 0; --tw-translate-x: 0; --tw-translate-y: 0; --tw-rotate: 0; --tw-skew-x: 0; --tw-skew-y: 0; --tw-scale-x: 1; --tw-scale-y: 1; --tw-pan-x: ; --tw-pan-y: ; --tw-pinch-zoom: ; --tw-scroll-snap-strictness: proximity; --tw-gradient-from-position: ; --tw-gradient-via-position: ; --tw-gradient-to-position: ; --tw-ordinal: ; --tw-slashed-zero: ; --tw-numeric-figure: ; --tw-numeric-spacing: ; --tw-numeric-fraction: ; --tw-ring-inset: ; --tw-ring-offset-width: 0px; --tw-ring-offset-color: #fff; --tw-ring-color: rgba(69,89,164,.5); --tw-ring-offset-shadow: 0 0 #0000; --tw-ring-shadow: 0 0 #0000; --tw-shadow: 0 0 #0000; --tw-shadow-colored: 0 0 #0000; --tw-blur: ; --tw-brightness: ; --tw-contrast: ; --tw-grayscale: ; --tw-hue-rotate: ; --tw-invert: ; --tw-saturate: ; --tw-sepia: ; --tw-drop-shadow: ; --tw-backdrop-blur: ; --tw-backdrop-brightness: ; --tw-backdrop-contrast: ; --tw-backdrop-grayscale: ; --tw-backdrop-hue-rotate: ; --tw-backdrop-invert: ; --tw-backdrop-opacity: ; --tw-backdrop-saturate: ; --tw-backdrop-sepia: ; --tw-contain-size: ; --tw-contain-layout: ; --tw-contain-paint: ; --tw-contain-style: ; scrollbar-color: var(--main-surface-tertiary) transparent; color: rgb(13, 13, 13); margin-top: 0px; margin-bottom: 0px; font-family: ui-sans-serif, -apple-system, system-ui, &amp;quot;Segoe UI&amp;quot;, Helvetica, &amp;quot;Apple Color Emoji&amp;quot;, Arial, sans-serif, &amp;quot;Segoe UI Emoji&amp;quot;, &amp;quot;Segoe UI Symbol&amp;quot;; font-size: 16px; text-align: left; background-color: rgb(255, 255, 255);&quot;&gt;Monitor Transactions&lt;/span&gt;" style="ellipse;whiteSpace=wrap;html=1;" vertex="1" parent="1">
          <mxGeometry x="525" y="350" width="130" height="60" as="geometry" />
        </mxCell>
        <mxCell id="ae6mnd9QfLogUAE-1ja4-15" value="Manage Users" style="ellipse;whiteSpace=wrap;html=1;" vertex="1" parent="1">
          <mxGeometry x="530" y="240" width="130" height="60" as="geometry" />
        </mxCell>
        <mxCell id="ae6mnd9QfLogUAE-1ja4-16" value="" style="endArrow=none;html=1;rounded=0;exitX=1;exitY=0.5;exitDx=0;exitDy=0;" edge="1" parent="1" source="ae6mnd9QfLogUAE-1ja4-15">
          <mxGeometry width="50" height="50" relative="1" as="geometry">
            <mxPoint x="670" y="330" as="sourcePoint" />
            <mxPoint x="720" y="280" as="targetPoint" />
          </mxGeometry>
        </mxCell>
        <mxCell id="ae6mnd9QfLogUAE-1ja4-17" value="" style="endArrow=none;html=1;rounded=0;exitX=1;exitY=0;exitDx=0;exitDy=0;" edge="1" parent="1" source="ae6mnd9QfLogUAE-1ja4-14">
          <mxGeometry width="50" height="50" relative="1" as="geometry">
            <mxPoint x="650" y="350" as="sourcePoint" />
            <mxPoint x="720" y="280" as="targetPoint" />
          </mxGeometry>
        </mxCell>
      </root>
    </mxGraphModel>
  </diagram>
</mxfile>
